<svg xmlns="http://www.w3.org/2000/svg" width="16" height="20" fill="none"><path fill="#1617DB" d="M5.2 19.313C2.427 19.297.13 13.633.13 10.75c0-4.712 3.536-5.744 4.898-5.744.614 0 1.27.241 1.848.454.404.15.822.303 1.055.303.139 0 .467-.13.757-.246.617-.245 1.386-.551 2.281-.551h.005c.669 0 2.695.147 3.913 1.976l.286.429-.411.31c-.587.443-1.657 1.25-1.657 2.85 0 1.895 1.212 2.623 1.795 2.974.257.154.523.314.523.663 0 .227-1.818 5.118-4.458 5.118-.646 0-1.102-.194-1.505-.365-.408-.174-.759-.323-1.34-.323-.294 0-.667.14-1.06.287-.54.201-1.15.43-1.841.43h-.018ZM11.249.67c.068 2.479-1.704 4.198-3.475 4.09C7.482 2.782 9.544.67 11.249.67Z"/></svg>