<svg xmlns="http://www.w3.org/2000/svg" width="437" height="437" fill="none"><g filter="url(#a)"><g filter="url(#b)" opacity=".5"><circle cx="218.071" cy="214.119" r="14.894" fill="#CFCFCF"/></g><g filter="url(#c)"><mask id="d" fill="#fff"><path d="M236.12 214.119c0 9.968-8.081 18.048-18.049 18.048s-18.049-8.08-18.049-18.048c0-9.968 8.081-18.049 18.049-18.049s18.049 8.081 18.049 18.049Zm-32.466 0c0 7.962 6.455 14.416 14.417 14.416s14.417-6.454 14.417-14.416c0-7.962-6.455-14.417-14.417-14.417s-14.417 6.455-14.417 14.417Z"/></mask><path fill="#EEE" d="M236.12 214.119c0 9.968-8.081 18.048-18.049 18.048s-18.049-8.08-18.049-18.048c0-9.968 8.081-18.049 18.049-18.049s18.049 8.081 18.049 18.049Zm-32.466 0c0 7.962 6.455 14.416 14.417 14.416s14.417-6.454 14.417-14.416c0-7.962-6.455-14.417-14.417-14.417s-14.417 6.455-14.417 14.417Z"/><path stroke="#CDCDCD" stroke-width="2" d="M236.12 214.119c0 9.968-8.081 18.048-18.049 18.048s-18.049-8.08-18.049-18.048c0-9.968 8.081-18.049 18.049-18.049s18.049 8.081 18.049 18.049Zm-32.466 0c0 7.962 6.455 14.416 14.417 14.416s14.417-6.454 14.417-14.416c0-7.962-6.455-14.417-14.417-14.417s-14.417 6.455-14.417 14.417Z" mask="url(#d)"/></g><path fill="#1617DB" d="m225.131 214.119-10.589 6.113v-12.227l10.589 6.114Z"/></g><defs><filter id="a" width="436.098" height="436.097" x=".022" y=".07" color-interpolation-filters="sRGB" filterUnits="userSpaceOnUse"><feFlood flood-opacity="0" result="BackgroundImageFix"/><feColorMatrix in="SourceAlpha" result="hardAlpha" values="0 0 0 0 0 0 0 0 0 0 0 0 0 0 0 0 0 0 127 0"/><feOffset dy="4"/><feGaussianBlur stdDeviation="100"/><feColorMatrix values="0 0 0 0 0 0 0 0 0 0 0 0 0 0 0 0 0 0 0.2 0"/><feBlend in2="BackgroundImageFix" result="effect1_dropShadow_93_66"/><feBlend in="SourceGraphic" in2="effect1_dropShadow_93_66" result="shape"/></filter><filter id="b" width="37.789" height="37.789" x="199.177" y="199.224" color-interpolation-filters="sRGB" filterUnits="userSpaceOnUse"><feFlood flood-opacity="0" result="BackgroundImageFix"/><feColorMatrix in="SourceAlpha" result="hardAlpha" values="0 0 0 0 0 0 0 0 0 0 0 0 0 0 0 0 0 0 127 0"/><feOffset dy="4"/><feGaussianBlur stdDeviation="2"/><feColorMatrix values="0 0 0 0 0 0 0 0 0 0 0 0 0 0 0 0 0 0 0.14 0"/><feBlend in2="BackgroundImageFix" result="effect1_dropShadow_93_66"/><feBlend in="SourceGraphic" in2="effect1_dropShadow_93_66" result="shape"/><feColorMatrix in="SourceAlpha" result="hardAlpha" values="0 0 0 0 0 0 0 0 0 0 0 0 0 0 0 0 0 0 127 0"/><feOffset dy="4"/><feGaussianBlur stdDeviation="2"/><feComposite in2="hardAlpha" k2="-1" k3="1" operator="arithmetic"/><feColorMatrix values="0 0 0 0 0 0 0 0 0 0 0 0 0 0 0 0 0 0 0.1 0"/><feBlend in2="shape" result="effect2_innerShadow_93_66"/></filter><filter id="c" width="40.098" height="40.097" x="198.022" y="194.07" color-interpolation-filters="sRGB" filterUnits="userSpaceOnUse"><feFlood flood-opacity="0" result="BackgroundImageFix"/><feBlend in="SourceGraphic" in2="BackgroundImageFix" result="shape"/><feGaussianBlur result="effect1_foregroundBlur_93_66" stdDeviation="1"/></filter></defs></svg>